#!OML:ASF H:\Terrain\Patient Classification 1\Animal1\Tuesday\Animal1.ASF
:FULLY-SPECIFIED
:DEGREES
2191
root 10.7324 16.017 -18.4204 -343.193 44.1767 3.03733
lowerback 6.77403 -0.468284 0.505146
upperback 0.266111 -0.660533 -2.44692
thorax -3.56023 -0.349885 -2.75199
lowerneck -5.67661 -2.52795 -9.36139
upperneck -15.0129 -1.15657 16.1739
head -3.21103 -0.562681 6.63391
rclavicle 6.98728e-014 -8.74653e-015
rhumerus -5.23368 4.72989 -82.9497
rradius 118.403
rwrist 10.2068
rhand 3.44451 13.7615
rfingers 7.12502
rthumb 28.8852 -14.0219
lclavicle 6.98728e-014 -8.74653e-015
lhumerus -16.2528 -21.6988 85.2229
lradius 101.385
lwrist -50.212
lhand 15.3456 51.074
lfingers 7.12502
lthumb 40.1769 76.2464
rfemur -31.7687 7.94888 29.4738
rtibia 42.8349
rfoot -9.03302 0.4117
rtoes 1.28511
lfemur -42.8284 -14.5147 -10.8187
ltibia 27.8934
lfoot -14.5411 13.3731
ltoes -17.112
2192
root 10.8134 16.0321 -18.3852 -343.642 43.2535 2.21408
lowerback 6.41285 -0.422239 0.623964
upperback 0.326087 -0.578733 -2.1426
thorax -3.28892 -0.307361 -2.51159
lowerneck -5.72367 -2.52525 -9.39522
upperneck -14.9203 -1.18922 15.994
head -3.17627 -0.571719 6.57822
rclavicle -1.42131e-014 5.56597e-015
rhumerus -5.20796 4.72409 -82.4561
rradius 118.447
rwrist 9.85419
rhand 3.67469 14.24
rfingers 7.12502
rthumb 29.1051 -13.5056
lclavicle -1.42131e-014 5.56597e-015
lhumerus -15.6902 -21.4166 85.4332
lradius 101.003
lwrist -50.1915
lhand 16.9688 54.6711
lfingers 7.12502
lthumb 41.7015 79.3604
rfemur -31.6125 8.10285 29.9472
rtibia 42.954
rfoot -9.5437 0.975265
rtoes -3.45636
lfemur -42.9088 -16.1692 -9.13315
ltibia 26.7825
lfoot -16.0631 14.2896
ltoes -13.06
2193
root 10.8911 16.0383 -18.3497 -344.11 42.3025 1.49388
lowerback 6.24734 -0.443209 0.611547
upperback 0.354499 -0.59757 -1.81636
thorax -3.16371 -0.314038 -2.16532
lowerneck -5.8868 -2.48859 -9.50542
upperneck -14.6274 -1.18335 15.8704
head -3.06607 -0.552826 6.54835
rclavicle 1.75924e-014 -1.86858e-014
rhumerus -5.17771 4.93826 -81.9761
rradius 118.427
rwrist 9.58841
rhand 3.75739 14.201
rfingers 7.12502
rthumb 29.184 -13.531
lclavicle 1.75924e-014 -1.86858e-014
lhumerus -15.4159 -20.917 85.6543
lradius 100.871
lwrist -50.4088
lhand 17.7829 55.2705
lfingers 7.12502
lthumb 42.4644 79.703
rfemur -31.4933 8.08878 30.3736
rtibia 43.2486
rfoot -9.21311 2.13184
rtoes 0.00570197
lfemur -42.8762 -17.585 -7.78908
ltibia 25.9758
lfoot -17.1862 15.0703
ltoes -7.465
2194
root 10.9747 16.0415 -18.3094 -344.153 41.3228 1.85395
lowerback 6.28089 -0.585676 -0.150169
upperback 0.447789 -0.834689 -1.68229
thorax -3.08311 -0.419284 -1.5768
lowerneck -5.8654 -2.38809 -9.97489
upperneck -14.4019 -1.06025 15.9995
head -3.0119 -0.47544 6.66886
rclavicle 6.7388e-014 3.18055e-015
rhumerus -5.02965 5.44486 -81.523
rradius 118.22
rwrist 9.61233
rhand 3.47038 14.3001
rfingers 7.12502
rthumb 28.9099 -13.4791
lclavicle 6.7388e-014 3.18055e-015
lhumerus -15.4886 -20.1982 85.9725
lradius 100.911
lwrist -50.676
lhand 17.7277 54.4818
lfingers 7.12502
lthumb 42.4127 78.9321
rfemur -31.1708 7.52514 30.0224
rtibia 43.8014
rfoot -8.48002 3.47956
rtoes 5.75489
lfemur -42.388 -18.4929 -8.06801
ltibia 25.5282
lfoot -16.7526 16.4902
ltoes -8.95921
2195
root 11.0572 16.0261 -18.2673 -344.361 40.3975 2.12394
lowerback 6.46228 -0.71982 -0.816149
upperback 0.547062 -1.05738 -1.58979
thorax -3.07427 -0.519796 -1.08579
lowerneck -5.55091 -2.23667 -10.3061
upperneck -14.5255 -0.853617 16.1017
head -3.12343 -0.378641 6.76813
rclavicle -1.5704e-014 1.59028e-014
rhumerus -4.86941 5.86941 -81.0232
rradius 118.142
rwrist 9.47687
rhand 3.35567 14.5741
rfingers 7.12502
rthumb 28.8004 -13.2238
lclavicle -1.5704e-014 1.59028e-014
lhumerus -15.7676 -19.5952 86.3293
lradius 101.088
lwrist -50.7915
lhand 18.3512 55.0394
lfingers 7.12502
lthumb 42.9961 79.2867
rfemur -30.7825 6.6983 29.8732
rtibia 44.5946
rfoot -8.36891 4.06992
rtoes 2.35526
lfemur -41.7682 -18.8883 -8.67764
ltibia 25.4443
lfoot -15.9887 18.1041
ltoes -15.7211
2196
root 11.1322 16.0101 -18.2243 -344.822 39.3881 1.75249
lowerback 6.55122 -0.763214 -1.02969
upperback 0.695772 -1.12445 -1.45385
thorax -2.96448 -0.549637 -0.819445
lowerneck -5.80285 -2.1994 -10.3179
upperneck -14.4491 -0.792782 16.1332
head -3.06664 -0.339836 6.7771
rclavicle -2.74323e-014 5.1684e-015
rhumerus -4.52913 6.14045 -80.6207
rradius 118.18
rwrist 9.06966
rhand 3.05726 14.2091
rfingers 7.12502
rthumb 28.5153 -13.637
lclavicle -2.74323e-014 5.1684e-015
lhumerus -15.7063 -19.1656 86.5508
lradius 101.174
lwrist -50.7797
lhand 18.0511 54.0932
lfingers 7.12502
lthumb 42.7154 78.4389
rfemur -30.7514 6.21174 30.1403
rtibia 45.578
rfoot -8.19747 5.02438
rtoes 0.199794
lfemur -41.3909 -19.0533 -8.65201
ltibia 25.8129
lfoot -16.204 18.0831
ltoes -17.3553
2197
root 11.2042 15.9898 -18.18 -345.325 38.3102 0.955664
lowerback 6.44986 -0.745959 -0.84466
upperback 0.778365 -1.08178 -1.33129
thorax -2.82323 -0.530601 -0.802567
lowerneck -6.2602 -2.26861 -10.2939
upperneck -14.1673 -0.876913 16.2663
head -2.89314 -0.366249 6.80552
rclavicle 5.6753e-014 -4.92986e-014
rhumerus -4.342 6.20609 -80.4174
rradius 118.213
rwrist 8.82341
rhand 2.61996 13.499
rfingers 7.12502
rthumb 28.0973 -14.4164
lclavicle 5.6753e-014 -4.92986e-014
lhumerus -15.4866 -19.1908 86.6841
lradius 101.059
lwrist -50.9337
lhand 16.3383 52.214
lfingers 7.12502
lthumb 41.1099 77.0954
rfemur -31.1242 5.66731 30.7556
rtibia 46.742
rfoot -7.89129 6.24112
rtoes -3.6869
lfemur -41.3379 -19.0249 -8.08589
ltibia 26.5612
lfoot -16.0549 16.8491
ltoes -17.1766
2198
root 11.2807 15.9615 -18.1383 -345.859 37.3165 0.165908
lowerback 6.49138 -0.715446 -0.40295
upperback 0.725464 -1.01221 -1.32338
thorax -2.90796 -0.501399 -1.04768
lowerneck -6.13209 -2.30061 -10.2264
upperneck -14.1361 -0.923892 16.4615
head -2.89428 -0.406643 6.85742
rclavicle 2.98177e-014 -2.98177e-014
rhumerus -4.45485 5.95321 -80.2546
rradius 118.156
rwrist 9.01049
rhand 2.47209 13.207
rfingers 7.12502
rthumb 27.956 -14.7315
lclavicle 2.98177e-014 -2.98177e-014
lhumerus -15.5592 -19.652 86.8015
lradius 101.069
lwrist -51.0693
lhand 15.4789 52.5316
lfingers 7.12502
lthumb 40.3023 77.6657
rfemur -31.5563 4.50591 31.5407
rtibia 48.1734
rfoot -8.09462 6.88885
rtoes -14.3617
lfemur -41.2142 -18.8797 -7.52745
ltibia 27.3501
lfoot -15.1173 14.8366
ltoes -18.9187
2199
root 11.3529 15.9533 -18.1062 -346.207 36.4876 -0.0750365
lowerback 6.93532 -0.748933 -0.216294
upperback 0.574702 -1.0552 -1.46964
thorax -3.31905 -0.526635 -1.29356
lowerneck -5.69373 -2.35307 -9.96485
upperneck -14.1716 -1.03146 16.5577
head -2.96278 -0.4989 6.84613
rclavicle -3.65764e-014 3.18055e-015
rhumerus -4.7724 5.67818 -80.0734
rradius 118.163
rwrist 9.09767
rhand 2.26265 12.9304
rfingers 7.12502
rthumb 27.7558 -15.0406
lclavicle -3.65764e-014 3.18055e-015
lhumerus -15.5248 -19.8072 86.786
lradius 100.92
lwrist -50.9095
lhand 15.7727 53.6536
lfingers 7.12502
lthumb 40.5785 78.7025
rfemur -32.1846 3.12229 31.7949
rtibia 49.9036
rfoot -6.9932 8.90878
rtoes -12.6611
lfemur -40.9303 -19.0421 -7.38752
ltibia 28.0013
lfoot -14.3935 12.3589
ltoes -19.6107
2200
root 11.4089 15.957 -18.0856 -346.355 35.8109 0.0586423
lowerback 7.39443 -1.11931 -0.723782
upperback 0.695843 -1.58381 -1.27168
thorax -3.44245 -0.779529 -0.745051
lowerneck -5.77787 -2.28634 -10.3036
upperneck -14.3842 -0.918289 16.4839
head -3.02597 -0.427582 6.88822
rclavicle -1.80894e-014 4.01545e-014
rhumerus -4.1515 6.38035 -79.6027
rradius 118.137
rwrist 8.79179
rhand 2.58623 12.5572
rfingers 7.12502
rthumb 28.0651 -15.3635
lclavicle -1.80894e-014 4.01545e-014
lhumerus -14.7417 -18.6743 86.8043
lradius 100.508
lwrist -50.92
lhand 16.3632 54.6895
lfingers 7.12502
lthumb 41.1333 79.5634
rfemur -33.2704 1.87445 31.5648
rtibia 52.0052
rfoot -3.04521 11.8602
rtoes 6.7229
lfemur -40.7069 -19.5244 -7.40212
ltibia 28.395
lfoot -13.3189 10.5407
ltoes -17.265
